<?xml version="1.0" encoding="utf-8"?>
<!-- Generator: Adobe Illustrator 26.0.3, SVG Export Plug-In . SVG Version: 6.00 Build 0)  -->
<svg version="1.1" xmlns="http://www.w3.org/2000/svg" xmlns:xlink="http://www.w3.org/1999/xlink" x="0px" y="0px"
	 viewBox="0 0 455 455" style="enable-background:new 0 0 455 455;" xml:space="preserve">
<style type="text/css">
	.st0{display:none;}
	.st1{display:inline;fill:#F20808;}
	.st2{display:inline;}
	.st3{fill:none;}
	.st4{fill:#FFFFFF;}
</style>
<g id="Layer_2" class="st0">
	<rect class="st1" width="454.9" height="454.9"/>
</g>
<g id="Filled" class="st0">
	<g class="st2">
		<path class="st3" d="M307.3,170.1c-35.9,0-51.9,19.7-60.9,33.5v0.7H246c0.1-0.2,0.3-0.4,0.4-0.7v-28.8h-67.5
			c0.9,19.1,0,203.1,0,203.1h67.5V264.6c0-6.1,0.5-12.1,2.2-16.5c4.9-12.1,16-24.7,34.6-24.7c24.4,0,34.2,18.6,34.2,45.9V378H385
			V261.5C385,199.2,351.7,170.1,307.3,170.1z"/>
		<path class="st3" d="M108.2,77C85.1,77,70,92.2,70,112.1c0,19.5,14.7,35.1,37.3,35.1h0.4c23.6,0,38.2-15.6,38.2-35.1
			C145.5,92.2,131.3,77,108.2,77z"/>
		<rect x="74" y="174.9" class="st3" width="67.5" height="203.1"/>
		<path class="st4" d="M246.4,204.3v-0.7l0,0c-0.1,0.2-0.3,0.4-0.4,0.7H246.4z"/>
		<path class="st4" d="M396.4,0H58.6C26.3,0,0,26.3,0,58.6v337.7C0,428.7,26.3,455,58.6,455h337.7c32.4,0,58.6-26.3,58.6-58.6V58.6
			C455,26.3,428.7,0,396.4,0z M141.5,378H74V174.9h67.5V378z M107.8,147.2h-0.4c-22.6,0-37.3-15.6-37.3-35.1
			C70,92.2,85.1,77,108.2,77s37.3,15.2,37.8,35.1C146,131.6,131.3,147.2,107.8,147.2z M385,378h-67.5V269.3
			c0-27.3-9.8-45.9-34.2-45.9c-18.7,0-29.8,12.5-34.6,24.7c-1.8,4.3-2.2,10.4-2.2,16.5V378H179c0,0,0.9-184,0-203.1h67.5v28.8l0,0
			c9-13.8,25-33.5,60.9-33.5c44.4,0,77.7,29,77.7,91.4L385,378L385,378z"/>
	</g>
</g>
<g id="Outline">
	<g>
		<path class="st4" d="M395.9,15c24.3,0,44,19.7,44,44v336.9c0,24.3-19.7,44-44,44H59c-24.3,0-44-19.7-44-44V59
			c0-24.3,19.7-44,44-44H395.9 M395.9,0H59C26.4,0,0,26.4,0,59v336.9c0,32.6,26.4,59,59,59h336.9c32.6,0,59-26.4,59-59V59
			C454.9,26.4,428.5,0,395.9,0L395.9,0z"/>
	</g>
	<g>
		<path class="st4" d="M243.4,207.3v-24.4h-57.1c0.8,16.2,0,171.8,0,171.8h57.1v-95.9c0-5.2,0.4-10.2,1.9-14
			c4.1-10.2,13.5-20.9,29.3-20.9c20.6,0,28.9,15.7,28.9,38.8v92h57.2v-98.6c0-52.7-28.2-77.3-65.7-77.3
			C264.6,178.9,251.1,195.6,243.4,207.3"/>
		<path class="st4" d="M126.5,100.2c-19.5,0-32.3,12.9-32.3,29.7c0,16.5,12.4,29.7,31.6,29.7h0.3c20,0,32.3-13.2,32.3-29.7
			C158.1,113,146.1,100.2,126.5,100.2z"/>
		<rect x="97.6" y="183" class="st4" width="57.1" height="171.8"/>
		<path class="st4" d="M154.7,354.8H97.6V183h57.1V354.8z M126.2,159.6h-0.3c-19.1,0-31.6-13.2-31.6-29.7
			c-0.1-16.8,12.7-29.7,32.2-29.7s31.6,12.9,32,29.7C158.5,146.4,146.1,159.6,126.2,159.6z M360.7,354.8h-57.1v-92
			c0-23.1-8.3-38.8-28.9-38.8c-15.8,0-25.2,10.6-29.3,20.9c-1.5,3.6-1.9,8.8-1.9,14v95.9h-57.1c0,0,0.8-155.7,0-171.8h57.1v24.4l0,0
			c7.6-11.7,21.2-28.3,51.5-28.3c37.6,0,65.7,24.5,65.7,77.3L360.7,354.8L360.7,354.8z"/>
	</g>
</g>
</svg>
