<?xml version="1.0" encoding="utf-8"?>
<!-- Generator: Adobe Illustrator 26.0.3, SVG Export Plug-In . SVG Version: 6.00 Build 0)  -->
<svg version="1.1" xmlns="http://www.w3.org/2000/svg" xmlns:xlink="http://www.w3.org/1999/xlink" x="0px" y="0px"
	 viewBox="0 0 455 455" style="enable-background:new 0 0 455 455;" xml:space="preserve">
<style type="text/css">
	.st0{display:none;}
	.st1{display:inline;fill:#DB3A3A;}
	.st2{display:inline;fill:#F20808;}
	.st3{display:inline;}
	.st4{fill:none;}
	.st5{fill:#FFFFFF;}
	.st6{fill:none;stroke:#FFFFFF;stroke-width:15;stroke-miterlimit:10;}
	.st7{display:inline;fill:#FFFFFF;}
</style>
<g id="Layer_2" class="st0">
	<rect class="st1" width="455" height="455"/>
</g>
<g id="Layer_1" class="st0">
	<g id="Layer_2_00000007399682338458855620000014333664598280687532_">
		<rect class="st2" width="454.9" height="454.9"/>
	</g>
	<g id="Filled">
		<g class="st3">
			<path class="st4" d="M307.3,170.1c-35.9,0-51.9,19.7-60.9,33.5v0.7H246c0.1-0.2,0.3-0.4,0.4-0.7v-28.8h-67.5
				c0.9,19.1,0,203.1,0,203.1h67.5V264.6c0-6.1,0.5-12.1,2.2-16.5c4.9-12.1,16-24.7,34.6-24.7c24.4,0,34.2,18.6,34.2,45.9V378H385
				V261.5C385,199.2,351.7,170.1,307.3,170.1z"/>
			<path class="st4" d="M108.2,77C85.1,77,70,92.2,70,112.1c0,19.5,14.7,35.1,37.3,35.1h0.4c23.6,0,38.2-15.6,38.2-35.1
				C145.5,92.2,131.3,77,108.2,77z"/>
			<rect x="74" y="174.9" class="st4" width="67.5" height="203.1"/>
			<path class="st5" d="M246.4,204.3v-0.7l0,0c-0.1,0.2-0.3,0.4-0.4,0.7H246.4z"/>
			<path class="st5" d="M396.4,0H58.6C26.3,0,0,26.3,0,58.6v337.7C0,428.7,26.3,455,58.6,455h337.7c32.4,0,58.6-26.3,58.6-58.6V58.6
				C455,26.3,428.7,0,396.4,0z M141.5,378H74V174.9h67.5V378z M107.8,147.2h-0.4c-22.6,0-37.3-15.6-37.3-35.1
				C70,92.2,85.1,77,108.2,77s37.3,15.2,37.8,35.1C146,131.6,131.3,147.2,107.8,147.2z M385,378h-67.5V269.3
				c0-27.3-9.8-45.9-34.2-45.9c-18.7,0-29.8,12.5-34.6,24.7c-1.8,4.3-2.2,10.4-2.2,16.5V378H179c0,0,0.9-184,0-203.1h67.5v28.8l0,0
				c9-13.8,25-33.5,60.9-33.5c44.4,0,77.7,29,77.7,91.4L385,378L385,378z"/>
		</g>
	</g>
	<g id="Outline" class="st3">
		<g>
			<path class="st5" d="M395.9,15c24.3,0,44,19.7,44,44v336.9c0,24.3-19.7,44-44,44H59c-24.3,0-44-19.7-44-44V59
				c0-24.3,19.7-44,44-44H395.9 M395.9,0H59C26.4,0,0,26.4,0,59v336.9c0,32.6,26.4,59,59,59h336.9c32.6,0,59-26.4,59-59V59
				C454.9,26.4,428.5,0,395.9,0L395.9,0z"/>
		</g>
		<g>
			<path class="st5" d="M243.4,207.3v-24.4h-57.1c0.8,16.2,0,171.8,0,171.8h57.1v-95.9c0-5.2,0.4-10.2,1.9-14
				c4.1-10.2,13.5-20.9,29.3-20.9c20.6,0,28.9,15.7,28.9,38.8v92h57.2v-98.6c0-52.7-28.2-77.3-65.7-77.3
				C264.6,178.9,251.1,195.6,243.4,207.3"/>
			<path class="st5" d="M126.5,100.2c-19.5,0-32.3,12.9-32.3,29.7c0,16.5,12.4,29.7,31.6,29.7h0.3c20,0,32.3-13.2,32.3-29.7
				C158.1,113,146.1,100.2,126.5,100.2z"/>
			<rect x="97.6" y="183" class="st5" width="57.1" height="171.8"/>
			<path class="st5" d="M154.7,354.8H97.6V183h57.1V354.8z M126.2,159.6h-0.3c-19.1,0-31.6-13.2-31.6-29.7
				c-0.1-16.8,12.7-29.7,32.2-29.7s31.6,12.9,32,29.7C158.5,146.4,146.1,159.6,126.2,159.6z M360.7,354.8h-57.1v-92
				c0-23.1-8.3-38.8-28.9-38.8c-15.8,0-25.2,10.6-29.3,20.9c-1.5,3.6-1.9,8.8-1.9,14v95.9h-57.1c0,0,0.8-155.7,0-171.8h57.1v24.4
				l0,0c7.6-11.7,21.2-28.3,51.5-28.3c37.6,0,65.7,24.5,65.7,77.3V354.8L360.7,354.8z"/>
		</g>
	</g>
</g>
<g id="Layer_3">
	<g>
		<path class="st5" d="M400.1,15c22,0,39.9,17.9,39.9,39.9v345.1c0,22-17.9,39.9-39.9,39.9H54.9c-22,0-39.9-17.9-39.9-39.9V54.9
			C15,32.9,32.9,15,54.9,15H400.1 M400.1,0H54.9C24.6,0,0,24.6,0,54.9v345.1C0,430.4,24.6,455,54.9,455h345.1
			c30.3,0,54.9-24.6,54.9-54.9V54.9C455,24.6,430.4,0,400.1,0L400.1,0z"/>
	</g>
	<line class="st6" x1="91.7" y1="344.2" x2="365" y2="344.2"/>
	<line class="st6" x1="151.7" y1="395" x2="305" y2="395"/>
	<path class="st5" d="M228.3,64.8c-67,0-121.3,54.3-121.3,121.3s54.3,121.3,121.3,121.3s121.3-54.3,121.3-121.3
		S295.3,64.8,228.3,64.8z M227.5,115.1c20.5,0,37.1,16.6,37.1,37.1s-16.6,37.1-37.1,37.1s-37.1-16.6-37.1-37.1
		S207,115.1,227.5,115.1z M228.3,291.1c-26.8,0-51.3-10.1-69.9-26.7c4.3-34.8,34-61.8,69.9-61.8c35.9,0,65.6,27,69.9,61.8
		C279.6,281,255.1,291.1,228.3,291.1z"/>
</g>
<g id="Layer_4" class="st0">
	<path class="st7" d="M228.3,64.8c-67,0-121.3,54.3-121.3,121.3s54.3,121.3,121.3,121.3s121.3-54.3,121.3-121.3
		S295.3,64.8,228.3,64.8z M228.3,81.2c57.9,0,104.9,47.1,104.9,104.9c0,23.8-8,45.7-21.3,63.4c-7.5-26.8-27.6-48.4-53.4-58
		c10.5-8.5,17.2-21.5,17.2-36.1c0-25.7-20.8-46.5-46.5-46.5c-25.7,0-46.5,20.8-46.5,46.5c0,14.3,6.5,27.1,16.7,35.6
		c-26.4,9.4-47,31.2-54.6,58.4c-13.4-17.6-21.3-39.6-21.3-63.4C123.4,128.3,170.5,81.2,228.3,81.2z M229.1,185.6
		c-16.6,0-30.1-13.5-30.1-30.1c0-16.6,13.5-30.1,30.1-30.1c16.6,0,30.1,13.5,30.1,30.1C259.2,172.1,245.7,185.6,229.1,185.6z
		 M158.4,264.4c4.3-34.8,34-61.8,69.9-61.8c35.9,0,65.6,27,69.9,61.8c-18.6,16.6-43.1,26.7-69.9,26.7
		C201.5,291.1,177,281,158.4,264.4z"/>
	<path class="st7" d="M145.3,266.8l-20.1-39.3l-14-41.9l17-48.5l17-32l43.9-26.2l47-7.5l36.4,14.3l43.6,25.5l17.1,32l11.2,46.6
		c0,0-6.1,27.2-6.5,28.3c-0.3,1-15.3,35.7-15.3,35.7l-11.9,12.9l-14.6-36.4l-34.7-29.3l-20.4-8.5l15-17.4l14.6-19.7l-9.9-27.2
		l-21.4-16.7l-31.3,3.4l-13.6,21.4c0,0-0.3,23.1-0.3,24.2c0,1,8.2,25,8.2,25l9.5,12.8l-23.1,8.5L166,229.4l-17.4,20.2L145.3,266.8z"
		/>
	<circle class="st1" cx="227.5" cy="158.8" r="37.1"/>
</g>
</svg>
